<mxfile host="app.diagrams.net" modified="2024-02-03T20:37:11.547Z" agent="Mozilla/5.0 (Windows NT 10.0; Win64; x64) AppleWebKit/537.36 (KHTML, like Gecko) Chrome/121.0.0.0 Safari/537.36 Edg/121.0.0.0" etag="WlaXXwytvKedR88XtVxc" version="23.1.1" type="device">
  <diagram id="C5RBs43oDa-KdzZeNtuy" name="Page-1">
    <mxGraphModel dx="1105" dy="772" grid="1" gridSize="10" guides="1" tooltips="1" connect="1" arrows="1" fold="1" page="1" pageScale="1" pageWidth="827" pageHeight="1169" math="0" shadow="0">
      <root>
        <mxCell id="WIyWlLk6GJQsqaUBKTNV-0" />
        <mxCell id="WIyWlLk6GJQsqaUBKTNV-1" parent="WIyWlLk6GJQsqaUBKTNV-0" />
        <mxCell id="hKpSgnDOYvZBVqQ3qXr6-12" value="" style="edgeStyle=orthogonalEdgeStyle;rounded=0;orthogonalLoop=1;jettySize=auto;html=1;" edge="1" parent="WIyWlLk6GJQsqaUBKTNV-1" source="WIyWlLk6GJQsqaUBKTNV-3" target="hKpSgnDOYvZBVqQ3qXr6-11">
          <mxGeometry relative="1" as="geometry" />
        </mxCell>
        <mxCell id="WIyWlLk6GJQsqaUBKTNV-3" value="Set Up" style="rounded=1;whiteSpace=wrap;html=1;fontSize=12;glass=0;strokeWidth=1;shadow=0;" parent="WIyWlLk6GJQsqaUBKTNV-1" vertex="1">
          <mxGeometry x="120" y="20" width="120" height="60" as="geometry" />
        </mxCell>
        <mxCell id="hKpSgnDOYvZBVqQ3qXr6-14" value="" style="edgeStyle=orthogonalEdgeStyle;rounded=0;orthogonalLoop=1;jettySize=auto;html=1;" edge="1" parent="WIyWlLk6GJQsqaUBKTNV-1" source="hKpSgnDOYvZBVqQ3qXr6-11" target="hKpSgnDOYvZBVqQ3qXr6-13">
          <mxGeometry relative="1" as="geometry" />
        </mxCell>
        <mxCell id="hKpSgnDOYvZBVqQ3qXr6-11" value="Check State" style="rounded=0;whiteSpace=wrap;html=1;" vertex="1" parent="WIyWlLk6GJQsqaUBKTNV-1">
          <mxGeometry x="120" y="120" width="120" height="60" as="geometry" />
        </mxCell>
        <mxCell id="hKpSgnDOYvZBVqQ3qXr6-21" value="" style="edgeStyle=orthogonalEdgeStyle;rounded=0;orthogonalLoop=1;jettySize=auto;html=1;" edge="1" parent="WIyWlLk6GJQsqaUBKTNV-1" source="hKpSgnDOYvZBVqQ3qXr6-13" target="hKpSgnDOYvZBVqQ3qXr6-15">
          <mxGeometry relative="1" as="geometry" />
        </mxCell>
        <mxCell id="hKpSgnDOYvZBVqQ3qXr6-13" value="Move to detected state" style="rounded=0;whiteSpace=wrap;html=1;" vertex="1" parent="WIyWlLk6GJQsqaUBKTNV-1">
          <mxGeometry x="120" y="220" width="120" height="60" as="geometry" />
        </mxCell>
        <mxCell id="hKpSgnDOYvZBVqQ3qXr6-19" value="" style="edgeStyle=orthogonalEdgeStyle;rounded=0;orthogonalLoop=1;jettySize=auto;html=1;" edge="1" parent="WIyWlLk6GJQsqaUBKTNV-1" source="hKpSgnDOYvZBVqQ3qXr6-15" target="hKpSgnDOYvZBVqQ3qXr6-17">
          <mxGeometry relative="1" as="geometry" />
        </mxCell>
        <mxCell id="hKpSgnDOYvZBVqQ3qXr6-15" value="Launch pad" style="rounded=1;whiteSpace=wrap;html=1;" vertex="1" parent="WIyWlLk6GJQsqaUBKTNV-1">
          <mxGeometry x="120" y="324.5" width="120" height="60" as="geometry" />
        </mxCell>
        <mxCell id="hKpSgnDOYvZBVqQ3qXr6-20" value="" style="edgeStyle=orthogonalEdgeStyle;rounded=0;orthogonalLoop=1;jettySize=auto;html=1;" edge="1" parent="WIyWlLk6GJQsqaUBKTNV-1" source="hKpSgnDOYvZBVqQ3qXr6-17" target="hKpSgnDOYvZBVqQ3qXr6-18">
          <mxGeometry relative="1" as="geometry" />
        </mxCell>
        <mxCell id="hKpSgnDOYvZBVqQ3qXr6-17" value="Set state to launch" style="rounded=0;whiteSpace=wrap;html=1;" vertex="1" parent="WIyWlLk6GJQsqaUBKTNV-1">
          <mxGeometry x="120" y="424.5" width="120" height="60" as="geometry" />
        </mxCell>
        <mxCell id="hKpSgnDOYvZBVqQ3qXr6-25" value="" style="edgeStyle=orthogonalEdgeStyle;rounded=0;orthogonalLoop=1;jettySize=auto;html=1;" edge="1" parent="WIyWlLk6GJQsqaUBKTNV-1" source="hKpSgnDOYvZBVqQ3qXr6-18" target="hKpSgnDOYvZBVqQ3qXr6-24">
          <mxGeometry relative="1" as="geometry" />
        </mxCell>
        <mxCell id="hKpSgnDOYvZBVqQ3qXr6-18" value="log gyro readings" style="rounded=0;whiteSpace=wrap;html=1;" vertex="1" parent="WIyWlLk6GJQsqaUBKTNV-1">
          <mxGeometry x="120" y="524.5" width="120" height="60" as="geometry" />
        </mxCell>
        <mxCell id="hKpSgnDOYvZBVqQ3qXr6-24" value="Wait for acceleration" style="rounded=0;whiteSpace=wrap;html=1;" vertex="1" parent="WIyWlLk6GJQsqaUBKTNV-1">
          <mxGeometry x="120" y="630" width="120" height="60" as="geometry" />
        </mxCell>
      </root>
    </mxGraphModel>
  </diagram>
</mxfile>
